<svg xmlns="http://www.w3.org/2000/svg" width="16" height="15.6" viewBox="0 0 16 15.6"><title>github</title><path d="M8 0a8 8 0 0 0-2.53 15.59c.4.07.55-.17.55-.39v-1.36c-2.23.48-2.69-1.07-2.69-1.07a2.12 2.12 0 0 0-.89-1.17c-.73-.5.06-.49.06-.49a1.68 1.68 0 0 1 1.23.82 1.7 1.7 0 0 0 2.27.68 1.7 1.7 0 0 1 .51-1.07c-1.78-.2-3.64-.89-3.64-4a3.09 3.09 0 0 1 .82-2.15 2.84 2.84 0 0 1 .07-2.12s.67-.21 2.2.82a7.54 7.54 0 0 1 4 0c1.52-1 2.19-.82 2.19-.82a2.92 2.92 0 0 1 .08 2.12 3.1 3.1 0 0 1 .82 2.15c0 3.07-1.87 3.75-3.65 3.95A1.91 1.91 0 0 1 10 13v2.19c0 .26.14.46.55.38A8 8 0 0 0 8 0"/></svg>